# File created by Blade
# Date/Time:  Wed Jan 21 17:10:37 2015
# Frame Rate: 120.000 fps
#------------------------------------------------------
:FULLY-SPECIFIED
:DEGREES
568
root 19.725277 3.310375 -11.555985 -235.184984 4.467076 -184.639634
Spine 67.217668 6.300515 -7.826065
Head -9.450051 5.124426 4.727163
LeftShoulder 15.541504 -29.478153 -11.637289
LeftArm 19.150014 29.018638 -70.035467
LeftForeArm -64.663370 -0.000000 108.077011
LeftHand -5.132826 -0.000000 7.852609
LeftHandThumb1 -26.253704 0.000000 33.147579
RightShoulder 6.548748 10.670084 -27.470319
RightArm 64.522704 5.602323 15.694217
RightForeArm 15.843286 -0.000000 114.395504
RightHand -19.647475 -0.000000 -0.247926
RightHandThumb1 -24.326973 -0.000000 -32.862282
LeftUpLeg -36.726670 32.205081 -3.444374
LeftLeg -1.036732 -0.000000 0.000000
LeftFoot 17.590418 34.544565 -0.561686
LeftToeBase 18.755305 -0.000000 -0.000000
RightUpLeg -115.297793 16.757624 86.404119
RightLeg 119.535141 -0.000000 -0.000000
RightFoot 19.113126 -22.219675 24.190555
RightToeBase 27.644949 -0.000000 -0.000000
569
root 19.722324 3.308682 -11.556115 -235.162544 4.471061 -184.694179
Spine 67.173645 6.354844 -7.955384
Head -9.486199 5.120789 4.750437
LeftShoulder 15.421617 -29.316843 -11.561666
LeftArm 19.339142 28.945334 -69.931351
LeftForeArm -64.719226 -0.000000 107.924506
LeftHand -4.885409 -0.000000 7.705408
LeftHandThumb1 -26.253704 0.000000 33.147579
RightShoulder 6.578682 10.603470 -27.327746
RightArm 64.612758 5.553330 15.835770
RightForeArm 15.524429 0.000000 114.223626
RightHand -19.624010 -0.000000 -0.090539
RightHandThumb1 -24.326973 -0.000000 -32.862282
LeftUpLeg -36.759666 32.279286 -3.506998
LeftLeg -1.063447 -0.000000 0.000000
LeftFoot 17.602050 34.683131 -0.571676
LeftToeBase 18.703398 -0.000000 -0.000000
RightUpLeg -115.256606 16.656857 85.896224
RightLeg 119.311395 -0.000000 -0.000000
RightFoot 17.435185 -20.620620 26.407532
RightToeBase 27.964532 -0.000000 -0.000000
570
root 19.724792 3.308643 -11.555958 -235.134920 4.512234 -184.727286
Spine 67.122968 6.446291 -8.000989
Head -9.508154 5.064861 4.813632
LeftShoulder 15.469350 -29.316531 -11.577300
LeftArm 19.271223 28.846187 -69.983557
LeftForeArm -64.648779 -0.000000 107.814698
LeftHand -4.876616 -0.000000 7.480101
LeftHandThumb1 -26.253704 0.000000 33.147579
RightShoulder 6.614169 10.554661 -27.200724
RightArm 64.589602 5.445120 15.978330
RightForeArm 15.351913 -0.000000 114.107954
RightHand -19.494106 -0.000000 -0.136404
RightHandThumb1 -24.326973 -0.000000 -32.862282
LeftUpLeg -36.795879 32.353013 -3.514979
LeftLeg -1.078767 -0.000000 0.000000
LeftFoot 17.647021 34.784183 -0.510186
LeftToeBase 18.673826 -0.000000 -0.000000
RightUpLeg -115.173204 16.656326 85.741386
RightLeg 119.177330 -0.000000 -0.000000
RightFoot 15.799063 -19.727149 27.106598
RightToeBase 27.728291 -0.000000 -0.000000
571
root 19.727605 3.309048 -11.555753 -235.123210 4.564066 -184.762746
Spine 67.087127 6.498118 -8.081340
Head -9.533014 5.057209 4.806289
LeftShoulder 15.390276 -29.383382 -11.573588
LeftArm 19.225241 28.769659 -70.043406
LeftForeArm -64.608637 -0.000000 107.675158
LeftHand -4.838200 0.000000 7.391191
LeftHandThumb1 -26.253704 0.000000 33.147579
RightShoulder 6.694794 10.509863 -27.075262
RightArm 64.605607 5.440988 16.133639
RightForeArm 15.213332 -0.000000 114.039084
RightHand -19.638083 0.000000 -0.138022
RightHandThumb1 -24.326973 -0.000000 -32.862282
LeftUpLeg -36.797536 32.404251 -3.480093
LeftLeg -1.095037 -0.000000 0.000000
LeftFoot 17.676349 34.889421 -0.498178
LeftToeBase 18.673240 -0.000000 -0.000000
RightUpLeg -115.083806 16.670412 85.683281
RightLeg 119.033524 -0.000000 -0.000000
RightFoot 13.947079 -19.200401 27.788463
RightToeBase 28.075590 -0.000000 -0.000000
572
root 19.730981 3.309616 -11.557493 -235.120151 4.604447 -184.799044
Spine 67.053106 6.537112 -8.157749
Head -9.547325 5.043660 4.758827
LeftShoulder 15.361227 -29.359800 -11.562414
LeftArm 19.225258 28.601260 -70.060413
LeftForeArm -64.604217 -0.000000 107.616453
LeftHand -4.861386 -0.000000 7.313902
LeftHandThumb1 -26.253704 0.000000 33.147579
RightShoulder 6.791249 10.528287 -27.003135
RightArm 64.575996 5.369424 16.355683
RightForeArm 15.017742 0.000000 113.977854
RightHand -19.800484 -0.000000 -0.172347
RightHandThumb1 -24.326973 -0.000000 -32.862282
LeftUpLeg -36.775027 32.432653 -3.433790
LeftLeg -1.113219 -0.000000 0.000000
LeftFoot 17.728902 34.982284 -0.458302
LeftToeBase 18.700912 -0.000000 -0.000000
RightUpLeg -115.013890 16.676585 85.568376
RightLeg 118.805719 -0.000000 -0.000000
RightFoot 12.265677 -18.707482 28.676637
RightToeBase 28.763530 -0.000000 -0.000000
573
root 19.734364 3.309751 -11.559317 -235.107484 4.637986 -184.850774
Spine 67.007775 6.595835 -8.241374
Head -9.578601 5.009445 4.718861
LeftShoulder 15.328906 -29.423008 -11.571923
LeftArm 19.174252 28.492984 -70.085266
LeftForeArm -64.648404 -0.000000 107.550009
LeftHand -4.948434 -0.000000 7.047103
LeftHandThumb1 -26.253704 0.000000 33.147579
RightShoulder 6.837930 10.466929 -26.927497
RightArm 64.598306 5.392778 16.557092
RightForeArm 14.966686 -0.000000 113.837556
RightHand -19.794509 -0.000000 -0.057052
RightHandThumb1 -24.326973 -0.000000 -32.862282
LeftUpLeg -36.760266 32.448815 -3.398085
LeftLeg -1.132884 -0.000000 0.000000
LeftFoot 17.799774 35.075367 -0.413083
LeftToeBase 18.715351 -0.000000 -0.000000
RightUpLeg -114.918272 16.651961 85.410229
RightLeg 118.576693 -0.000000 -0.000000
RightFoot 10.618752 -17.849722 29.616718
RightToeBase 29.149188 -0.000000 -0.000000
574
root 19.738998 3.309920 -11.563134 -235.107192 4.666278 -184.910805
Spine 66.952686 6.687510 -8.304519
Head -9.558340 4.953766 4.722913
LeftShoulder 15.252670 -29.372455 -11.531726
LeftArm 19.407697 28.451576 -69.985535
LeftForeArm -64.402700 -0.000000 107.259492
LeftHand -4.425702 -0.000000 7.254718
LeftHandThumb1 -26.253704 0.000000 33.147579
RightShoulder 6.896621 10.368277 -26.832083
RightArm 64.544141 5.449467 16.743844
RightForeArm 14.858849 0.000000 113.679957
RightHand -19.587022 0.000000 0.016203
RightHandThumb1 -24.326973 -0.000000 -32.862282
LeftUpLeg -36.716189 32.448868 -3.341331
LeftLeg -1.149080 -0.000000 0.000000
LeftFoot 17.880680 35.135877 -0.354313
LeftToeBase 18.654886 -0.000000 -0.000000
RightUpLeg -114.818600 16.634075 85.226022
RightLeg 118.324051 -0.000000 -0.000000
RightFoot 8.939855 -16.941037 30.581402
RightToeBase 29.438030 -0.000000 -0.000000
575
root 19.741817 3.309937 -11.567504 -235.098743 4.684525 -184.972300
Spine 66.889610 6.731962 -8.416737
Head -9.544909 4.934043 4.664413
LeftShoulder 15.168473 -29.438403 -11.551370
LeftArm 19.429329 28.395509 -69.929971
LeftForeArm -64.545415 0.000000 107.132645
LeftHand -4.260058 -0.000000 7.056885
LeftHandThumb1 -26.253704 0.000000 33.147579
RightShoulder 6.988333 10.355540 -26.775592
RightArm 64.556825 5.461190 16.987071
RightForeArm 14.675243 0.000000 113.556294
RightHand -19.696227 -0.000000 0.128060
RightHandThumb1 -24.326973 -0.000000 -32.862282
LeftUpLeg -36.663631 32.416184 -3.279900
LeftLeg -1.174859 -0.000000 0.000000
LeftFoot 17.990451 35.163319 -0.258304
LeftToeBase 18.620092 -0.000000 -0.000000
RightUpLeg -114.712787 16.628961 85.041671
RightLeg 118.069118 -0.000000 -0.000000
RightFoot 7.197815 -15.952499 31.474190
RightToeBase 29.169919 -0.000000 -0.000000
